<svg xmlns="http://www.w3.org/2000/svg" viewBox="0 0 23 23"><path d="M1 1h7v7h-7zM13 1h1v2h-1v1h1v5h-1v1h-1v-1h-1v-2h1v1h1v-3h-1v-1h-1v1h1v1h-1v1h-1v2h-1v-6h2v-1h2zM15 1h7v7h-7zM2 2v5h5v-5zM16 2v5h5v-5zM3 3h3v3h-3zM17 3h3v3h-3zM1 9h1v1h1v2h1v1h-2v1h-1v-2h1v-1h-1zM3 9h5v1h-1v1h3v2h-1v-1h-2v1h2v1h-3v-1h-1v-1h-1v-2h-1zM15 9h5v1h2v1h-1v1h1v1h-1v1h1v1h-1v1h-1v-1h-1v1h-1v-1h-1v-1h1v-3h-3zM12 11h2v1h-1v2h-2v-2h1zM19 11v1h1v-1zM14 12h1v1h1v1h-1v3h-1v-1h-1v1h-1v-2h2zM16 12h1v1h-1zM19 13v1h1v-1zM9 14h2v1h-2zM1 15h7v7h-7zM2 16v5h5v-5zM9 16h1v3h1v3h-2v-1h1v-1h-1zM19 16h1v1h-1zM21 16h1v2h-2v-1h1zM3 17h3v3h-3zM13 17h1v1h-1zM15 17h3v1h1v1h-3v-1h-1zM11 18h1v1h-1zM12 19h2v1h-2zM15 19h1v1h-1zM17 20h3v1h-3zM12 21h1v1h-1zM15 21h1v1h-1zM20 21h1v1h-1z"/></svg>